<svg xmlns="http://www.w3.org/2000/svg" xmlns:xlink="http://www.w3.org/1999/xlink" width="500" zoomAndPan="magnify" viewBox="0 0 375 374.999991" height="500" preserveAspectRatio="xMidYMid meet" version="1.0"><defs><g/><clipPath id="83dd735b9f"><path d="M 0 0.546875 L 120.554688 0.546875 L 120.554688 140.769531 L 0 140.769531 Z M 0 0.546875 " clip-rule="nonzero"/></clipPath><clipPath id="96a5c0d121"><rect x="0" width="288" y="0" height="90"/></clipPath><clipPath id="26e583e2c5"><path d="M 364.058594 69.628906 L 375 69.628906 L 375 80.679688 L 364.058594 80.679688 Z M 364.058594 69.628906 " clip-rule="nonzero"/></clipPath><clipPath id="ac581e84b0"><path d="M 0.0585938 0.628906 L 11 0.628906 L 11 11.679688 L 0.0585938 11.679688 Z M 0.0585938 0.628906 " clip-rule="nonzero"/></clipPath><clipPath id="2e348146cd"><rect x="0" width="11" y="0" height="12"/></clipPath><clipPath id="bbe43190fd"><rect x="0" width="375" y="0" height="142"/></clipPath></defs><g transform="matrix(1, 0, 0, 1, 0, 116)"><g clip-path="url(#bbe43190fd)"><g clip-path="url(#83dd735b9f)"><path fill="#fa4616" d="M 57.097656 75.140625 L 25.214844 75.140625 L 25.214844 111.8125 L 0.292969 140.542969 L 0.0234375 140.542969 L 0.0234375 50.277344 L 25.214844 75.140625 L 25.214844 50.277344 L 78.695312 50.277344 Z M 120.375 2.34375 L 100.027344 25.738281 L 0.0234375 25.738281 L 0.0234375 0.546875 L 120.375 0.546875 Z M 120.375 2.34375 " fill-opacity="1" fill-rule="nonzero"/></g><g transform="matrix(1, 0, 0, 1, 82, 18)"><g clip-path="url(#96a5c0d121)"><g fill="#ffffff" fill-opacity="1"><g transform="translate(0.178935, 66.726566)"><g><path d="M 1.765625 -17.640625 C 1.765625 -21.253906 2.445312 -24.425781 3.8125 -27.15625 C 5.175781 -29.882812 7.035156 -31.984375 9.390625 -33.453125 C 11.742188 -34.929688 14.367188 -35.671875 17.265625 -35.671875 C 19.742188 -35.671875 21.914062 -35.164062 23.78125 -34.15625 C 25.65625 -33.144531 27.097656 -31.820312 28.109375 -30.1875 L 28.109375 -35.15625 L 38.875 -35.15625 L 38.875 0 L 28.109375 0 L 28.109375 -4.984375 C 27.054688 -3.335938 25.59375 -2.007812 23.71875 -1 C 21.851562 0 19.679688 0.5 17.203125 0.5 C 14.347656 0.5 11.742188 -0.242188 9.390625 -1.734375 C 7.035156 -3.222656 5.175781 -5.34375 3.8125 -8.09375 C 2.445312 -10.84375 1.765625 -14.023438 1.765625 -17.640625 Z M 28.109375 -17.578125 C 28.109375 -20.265625 27.359375 -22.382812 25.859375 -23.9375 C 24.367188 -25.5 22.554688 -26.28125 20.421875 -26.28125 C 18.273438 -26.28125 16.457031 -25.507812 14.96875 -23.96875 C 13.476562 -22.4375 12.734375 -20.328125 12.734375 -17.640625 C 12.734375 -14.953125 13.476562 -12.820312 14.96875 -11.25 C 16.457031 -9.675781 18.273438 -8.890625 20.421875 -8.890625 C 22.554688 -8.890625 24.367188 -9.664062 25.859375 -11.21875 C 27.359375 -12.769531 28.109375 -14.890625 28.109375 -17.578125 Z M 28.109375 -17.578125 "/></g></g></g><g fill="#ffffff" fill-opacity="1"><g transform="translate(38.677293, 66.726566)"><g><path d="M 1.765625 -17.578125 C 1.765625 -21.234375 2.507812 -24.425781 4 -27.15625 C 5.488281 -29.882812 7.566406 -31.984375 10.234375 -33.453125 C 12.898438 -34.929688 15.957031 -35.671875 19.40625 -35.671875 C 23.820312 -35.671875 27.507812 -34.515625 30.46875 -32.203125 C 33.425781 -29.890625 35.367188 -26.632812 36.296875 -22.4375 L 24.828125 -22.4375 C 23.859375 -25.125 21.988281 -26.46875 19.21875 -26.46875 C 17.25 -26.46875 15.675781 -25.695312 14.5 -24.15625 C 13.320312 -22.625 12.734375 -20.429688 12.734375 -17.578125 C 12.734375 -14.722656 13.320312 -12.53125 14.5 -11 C 15.675781 -9.46875 17.25 -8.703125 19.21875 -8.703125 C 21.988281 -8.703125 23.859375 -10.046875 24.828125 -12.734375 L 36.296875 -12.734375 C 35.367188 -8.609375 33.414062 -5.367188 30.4375 -3.015625 C 27.457031 -0.671875 23.78125 0.5 19.40625 0.5 C 15.957031 0.5 12.898438 -0.234375 10.234375 -1.703125 C 7.566406 -3.171875 5.488281 -5.269531 4 -8 C 2.507812 -10.726562 1.765625 -13.921875 1.765625 -17.578125 Z M 1.765625 -17.578125 "/></g></g></g><g fill="#ffffff" fill-opacity="1"><g transform="translate(72.512949, 66.726566)"><g><path d="M 1.765625 -17.640625 C 1.765625 -21.253906 2.445312 -24.425781 3.8125 -27.15625 C 5.175781 -29.882812 7.035156 -31.984375 9.390625 -33.453125 C 11.742188 -34.929688 14.367188 -35.671875 17.265625 -35.671875 C 19.742188 -35.671875 21.914062 -35.164062 23.78125 -34.15625 C 25.65625 -33.144531 27.097656 -31.820312 28.109375 -30.1875 L 28.109375 -35.15625 L 38.875 -35.15625 L 38.875 0 L 28.109375 0 L 28.109375 -4.984375 C 27.054688 -3.335938 25.59375 -2.007812 23.71875 -1 C 21.851562 0 19.679688 0.5 17.203125 0.5 C 14.347656 0.5 11.742188 -0.242188 9.390625 -1.734375 C 7.035156 -3.222656 5.175781 -5.34375 3.8125 -8.09375 C 2.445312 -10.84375 1.765625 -14.023438 1.765625 -17.640625 Z M 28.109375 -17.578125 C 28.109375 -20.265625 27.359375 -22.382812 25.859375 -23.9375 C 24.367188 -25.5 22.554688 -26.28125 20.421875 -26.28125 C 18.273438 -26.28125 16.457031 -25.507812 14.96875 -23.96875 C 13.476562 -22.4375 12.734375 -20.328125 12.734375 -17.640625 C 12.734375 -14.953125 13.476562 -12.820312 14.96875 -11.25 C 16.457031 -9.675781 18.273438 -8.890625 20.421875 -8.890625 C 22.554688 -8.890625 24.367188 -9.664062 25.859375 -11.21875 C 27.359375 -12.769531 28.109375 -14.890625 28.109375 -17.578125 Z M 28.109375 -17.578125 "/></g></g></g><g fill="#ffffff" fill-opacity="1"><g transform="translate(111.011306, 66.726566)"><g><path d="M 1.765625 -17.640625 C 1.765625 -21.253906 2.445312 -24.425781 3.8125 -27.15625 C 5.175781 -29.882812 7.035156 -31.984375 9.390625 -33.453125 C 11.742188 -34.929688 14.367188 -35.671875 17.265625 -35.671875 C 19.578125 -35.671875 21.6875 -35.1875 23.59375 -34.21875 C 25.507812 -33.25 27.015625 -31.945312 28.109375 -30.3125 L 28.109375 -46.625 L 38.875 -46.625 L 38.875 0 L 28.109375 0 L 28.109375 -5.046875 C 27.097656 -3.359375 25.65625 -2.007812 23.78125 -1 C 21.914062 0 19.742188 0.5 17.265625 0.5 C 14.367188 0.5 11.742188 -0.242188 9.390625 -1.734375 C 7.035156 -3.222656 5.175781 -5.34375 3.8125 -8.09375 C 2.445312 -10.84375 1.765625 -14.023438 1.765625 -17.640625 Z M 28.109375 -17.578125 C 28.109375 -20.265625 27.359375 -22.382812 25.859375 -23.9375 C 24.367188 -25.5 22.554688 -26.28125 20.421875 -26.28125 C 18.273438 -26.28125 16.457031 -25.507812 14.96875 -23.96875 C 13.476562 -22.4375 12.734375 -20.328125 12.734375 -17.640625 C 12.734375 -14.953125 13.476562 -12.820312 14.96875 -11.25 C 16.457031 -9.675781 18.273438 -8.890625 20.421875 -8.890625 C 22.554688 -8.890625 24.367188 -9.664062 25.859375 -11.21875 C 27.359375 -12.769531 28.109375 -14.890625 28.109375 -17.578125 Z M 28.109375 -17.578125 "/></g></g></g><g fill="#ffffff" fill-opacity="1"><g transform="translate(149.509664, 66.726566)"><g><path d="M 37.046875 -18.15625 C 37.046875 -17.144531 36.984375 -16.09375 36.859375 -15 L 12.484375 -15 C 12.648438 -12.8125 13.351562 -11.140625 14.59375 -9.984375 C 15.832031 -8.828125 17.351562 -8.25 19.15625 -8.25 C 21.84375 -8.25 23.710938 -9.382812 24.765625 -11.65625 L 36.234375 -11.65625 C 35.648438 -9.34375 34.585938 -7.257812 33.046875 -5.40625 C 31.515625 -3.5625 29.59375 -2.113281 27.28125 -1.0625 C 24.96875 -0.0195312 22.382812 0.5 19.53125 0.5 C 16.09375 0.5 13.023438 -0.234375 10.328125 -1.703125 C 7.640625 -3.171875 5.539062 -5.269531 4.03125 -8 C 2.519531 -10.726562 1.765625 -13.921875 1.765625 -17.578125 C 1.765625 -21.234375 2.507812 -24.425781 4 -27.15625 C 5.488281 -29.882812 7.578125 -31.984375 10.265625 -33.453125 C 12.953125 -34.929688 16.039062 -35.671875 19.53125 -35.671875 C 22.9375 -35.671875 25.960938 -34.953125 28.609375 -33.515625 C 31.253906 -32.085938 33.320312 -30.050781 34.8125 -27.40625 C 36.300781 -24.757812 37.046875 -21.675781 37.046875 -18.15625 Z M 26.03125 -20.984375 C 26.03125 -22.828125 25.398438 -24.296875 24.140625 -25.390625 C 22.878906 -26.484375 21.300781 -27.03125 19.40625 -27.03125 C 17.601562 -27.03125 16.082031 -26.503906 14.84375 -25.453125 C 13.601562 -24.410156 12.835938 -22.921875 12.546875 -20.984375 Z M 26.03125 -20.984375 "/></g></g></g><g fill="#ffffff" fill-opacity="1"><g transform="translate(184.038426, 66.726566)"><g><path d="M 48.78125 -35.546875 C 53.144531 -35.546875 56.617188 -34.21875 59.203125 -31.5625 C 61.785156 -28.914062 63.078125 -25.242188 63.078125 -20.546875 L 63.078125 0 L 52.359375 0 L 52.359375 -19.09375 C 52.359375 -21.363281 51.757812 -23.117188 50.5625 -24.359375 C 49.375 -25.597656 47.726562 -26.21875 45.625 -26.21875 C 43.519531 -26.21875 41.867188 -25.597656 40.671875 -24.359375 C 39.472656 -23.117188 38.875 -21.363281 38.875 -19.09375 L 38.875 0 L 28.171875 0 L 28.171875 -19.09375 C 28.171875 -21.363281 27.570312 -23.117188 26.375 -24.359375 C 25.175781 -25.597656 23.523438 -26.21875 21.421875 -26.21875 C 19.328125 -26.21875 17.679688 -25.597656 16.484375 -24.359375 C 15.285156 -23.117188 14.6875 -21.363281 14.6875 -19.09375 L 14.6875 0 L 3.90625 0 L 3.90625 -35.15625 L 14.6875 -35.15625 L 14.6875 -30.75 C 15.78125 -32.21875 17.207031 -33.382812 18.96875 -34.25 C 20.726562 -35.113281 22.722656 -35.546875 24.953125 -35.546875 C 27.597656 -35.546875 29.957031 -34.976562 32.03125 -33.84375 C 34.113281 -32.707031 35.742188 -31.085938 36.921875 -28.984375 C 38.140625 -30.921875 39.800781 -32.5 41.90625 -33.71875 C 44.007812 -34.9375 46.300781 -35.546875 48.78125 -35.546875 Z M 48.78125 -35.546875 "/></g></g></g><g fill="#ffffff" fill-opacity="1"><g transform="translate(246.480403, 66.726566)"><g><path d="M 39.828125 -35.15625 L 17.765625 16.703125 L 6.171875 16.703125 L 14.234375 -1.203125 L -0.0625 -35.15625 L 11.96875 -35.15625 L 20.109375 -13.171875 L 28.171875 -35.15625 Z M 39.828125 -35.15625 "/></g></g></g></g></g><g clip-path="url(#26e583e2c5)"><g transform="matrix(1, 0, 0, 1, 364, 69)"><g clip-path="url(#2e348146cd)"><g clip-path="url(#ac581e84b0)"><path fill="#ffffff" d="M 0.0585938 0.628906 L 11 0.628906 L 11 11.699219 L 0.0585938 11.699219 Z M 0.0585938 0.628906 " fill-opacity="1" fill-rule="nonzero"/></g></g></g></g></g></g></svg>